<svg xmlns="http://www.w3.org/2000/svg" width="95.356" height="88.453" viewBox="0 0 95.356 88.453">
  <g id="XMLID_1_" transform="translate(-605.417 -32.481)">
    <g id="XMLID_2_">
      <path id="XMLID_3_" d="M620.937,63.753a8.483,8.483,0,0,0,3.258,4.4c1.337.957,2.993-.352,3.064-1.758a6.625,6.625,0,0,0-2.926-5.724,2.055,2.055,0,0,0-2.991,1.217c-.629,1.907-.6,5.073,1.434,6.17,2.294,1.24,4.539-1.065,4.845-3.227s-1.293-4.527-3.689-3.823c-2.17.638-3.005,3.78-.843,4.987,2.29,1.279,4.346-2.237,2.055-3.516.8.444,1.083,2.243-.064,2.428l-1.028-.149a.961.961,0,0,1-.412-.458c-.021-.184-.031-.2-.028-.048s0,.136.006-.029a.341.341,0,0,1-.073.238.156.156,0,0,1,.119-.079,1.432,1.432,0,0,1,1.559.65,2.509,2.509,0,0,0-.145-.5,3.111,3.111,0,0,1,.19-1.561l-2.991,1.217a2.547,2.547,0,0,1,.753,1,2.621,2.621,0,0,1,.156,1.209l3.063-1.758a4.025,4.025,0,0,1-1.387-1.971,2.036,2.036,0,1,0-3.925,1.084Z" fill="#4c4c4c"/>
    </g>
    <g id="XMLID_4_">
      <path id="XMLID_5_" d="M639.139,56.583c-.071-3.135-4.822-3.023-4.9.069-.053,2.065,2.067,4.4,4.187,4.286,2.659-.15,3.481-3.114,2.179-5.116a7.074,7.074,0,0,0-5.682-2.816,2.065,2.065,0,0,0-1.963,2.577,6.578,6.578,0,0,0,5.338,5.266,2.094,2.094,0,0,0,2.505-1.422,4.288,4.288,0,0,0-2.758-5.177,2.051,2.051,0,0,0-2.5,1.422,2.083,2.083,0,0,0,1.422,2.505l-.112-.035c-.107-.1-.11-.1-.01,0,0,0,.056.014.1.172-.073-.245-.055.081-.006.1-.1-.038.083-.583-.062-.067l2.5-1.422a2.643,2.643,0,0,1-2.495-2.422l-1.963,2.577a3.676,3.676,0,0,1,1.283.268,3.358,3.358,0,0,1,.7.393c-.007-.005.448.467.243.226.356.417-.083.042.048-.068q.065-.81,1.135-1.02a1,1,0,0,1,.272.039c.031.165-.215-.23-.268-.291.1.092.074.042-.068-.151a1.251,1.251,0,0,1,.037.514l-.524.9-1.767.233-.73-.73.058.1q-.14-.513-.278-1.028c0,.041,0,.082,0,.124.061,2.617,4.133,2.627,4.074,0Z" fill="#4c4c4c"/>
    </g>
    <g id="XMLID_6_">
      <path id="XMLID_7_" d="M652.611,42.676a2.638,2.638,0,0,0-3.828,1.954,4.651,4.651,0,0,0,1.405,4.108,3.425,3.425,0,0,0,4.179.516,3.471,3.471,0,0,0,1.365-3.7,3.326,3.326,0,0,0-3.121-2.6,3.845,3.845,0,0,0-3.626,2.639c-1.127,3.208,2.633,5.892,5.495,4.667a3.3,3.3,0,0,0,1.405-4.791,7.822,7.822,0,0,0-3.627-3.286,2.1,2.1,0,0,0-2.786.73,2.052,2.052,0,0,0,.73,2.786,5.361,5.361,0,0,1,1.253.726,4.025,4.025,0,0,1,.594.6c.052.067.225.448.32.5-.2-.1.565-1.03.57-1.01q.252.008-.136,0h.09c-.453-.107.2.008-.029.238-.021.021.018.111-.007.148-.173.25-.647.075-.819-.054a.852.852,0,0,1-.262-.384.357.357,0,0,1,.032-.257q-.125.378.087-.043a.558.558,0,0,1,.267-.32.6.6,0,0,1,.636-.089c.4-.1.2.336.127-.038.019.1-.12-.285-.117-.282-.028-.142-.04-.157-.035-.046a.918.918,0,0,1-.475.734l-1.028.278.155-.006-1.028-.278.157.082c2.321,1.215,4.382-2.3,2.057-3.515Z" fill="#4c4c4c"/>
    </g>
    <g id="XMLID_8_">
      <path id="XMLID_9_" d="M663.441,41.037a4.781,4.781,0,0,0,4.682,4.724,2.065,2.065,0,0,0,2.036-2.036,8.072,8.072,0,0,0-7.354-8.077,2.034,2.034,0,0,0-1.963,1.495c-.769,3.772,2.337,7.864,6.385,7.4,1.175-.136,2.488-1.211,1.963-2.577a4.25,4.25,0,0,0-4.953-2.816,2.052,2.052,0,0,0-1.422,2.5,2.083,2.083,0,0,0,2.505,1.422c-.252.043,0,.108-.055-.028l1.963-2.577c-1.228.142-2.747-.826-2.458-2.241l-1.963,1.495a3.94,3.94,0,0,1,3.282,4.005l2.036-2.036a.618.618,0,0,1-.61-.652c-.055-2.618-4.127-2.627-4.074,0Z" fill="#4c4c4c"/>
    </g>
    <g id="XMLID_10_">
      <path id="XMLID_11_" d="M649.458,62.292a9.742,9.742,0,0,0-3.356,2.862,3.163,3.163,0,0,0,.486,4.025,3.824,3.824,0,0,0,3.775.859,6.819,6.819,0,0,0,3.174-2.733,2.049,2.049,0,0,0-1.217-2.991,6.6,6.6,0,0,0-5.211.777,2.036,2.036,0,1,0,2.056,3.515,2.467,2.467,0,0,1,2.073-.366l-1.217-2.991a8.693,8.693,0,0,1-.8.855c-.394.377-.17-.053-.023.053q.316.06-.045-.035a.275.275,0,0,1,.185.073.427.427,0,0,1,.153.157.935.935,0,0,1-.023,1.051c.014.008.573-.568.6-.6a8.129,8.129,0,0,1,1.44-1c2.274-1.3.226-4.819-2.054-3.514Z" fill="#4c4c4c"/>
    </g>
    <g id="XMLID_12_">
      <path id="XMLID_13_" d="M636.691,72.684l1.353,3.96a2.065,2.065,0,0,0,2.991,1.217,4.075,4.075,0,0,0,1.054-6.135,3.961,3.961,0,0,0-3.076-1.261,4.173,4.173,0,0,0-3.237,1.818,2.05,2.05,0,0,0,.73,2.786,2.086,2.086,0,0,0,2.786-.73c-.13.173-.131.137-.309.245q.321-.075.108-.051t.117,0c-.354-.108.175.054-.032-.011a.276.276,0,0,1-.162-.125c.155.157.183.185.084.082-.263-.319,0-.06-.073-.029-.026-.208-.037-.235-.035-.084s0,.123.016-.083l-.051.178c.09-.2.079-.2-.034.01.045-.125.425-.334.057-.124l2.991,1.217-1.353-3.96a2.084,2.084,0,0,0-2.5-1.422,2.051,2.051,0,0,0-1.421,2.5Z" fill="#4c4c4c"/>
    </g>
    <g id="XMLID_14_">
      <path id="XMLID_15_" d="M662.124,53.642a3.236,3.236,0,0,0-1.437,2.49,3.371,3.371,0,0,0,.558,2.064,3.158,3.158,0,0,0,4.93.4,3.324,3.324,0,0,0-.452-5.074,3.587,3.587,0,0,0-4.535.469,2.036,2.036,0,0,0,2.879,2.879c.25-.271-.441.232-.033.017q.21-.11-.237.1.318-.076-.221.01A1.5,1.5,0,0,1,663.74,57c.164,0,.074-.013-.269-.049a1.507,1.507,0,0,1,.211.051l-.285-.126a1.407,1.407,0,0,1,.185.106q-.4-.329-.173-.109l-.192-.239c-.114-.32-.14-.376-.076-.169-.03-.333-.044-.417-.045-.255s.007.078.036-.254c-.064.205-.037.152.081-.157-.087.14-.076.138.032-.008.415-.307-.595.406.151-.125l-.1.055a1,1,0,0,1,.59-.161q-.255-.008.047.018a.834.834,0,0,1,.466.151q-.264-.16.175.149-.155-.167.031.057t.048.042c.128.337.158.407.088.209-.081-.347,0,.524.008.146s-.134.483-.023.153q-.237.5-.088.224a1.151,1.151,0,0,1-.459.451,2.224,2.224,0,0,0,.936-1.217,2.082,2.082,0,0,0-.205-1.569,2.058,2.058,0,0,0-2.786-.729Z" fill="#4c4c4c"/>
    </g>
    <g id="XMLID_16_">
      <path id="XMLID_17_" d="M634.932,82.78a4.566,4.566,0,0,0-1.752,7.463,2.065,2.065,0,0,0,2.879,0c1.2-1.236,2.137-3.013,1.091-4.657a2.84,2.84,0,0,0-4.421-.578,2.084,2.084,0,0,0,0,2.879,2.054,2.054,0,0,0,2.879,0,1.3,1.3,0,0,1-1.771.039,1.209,1.209,0,0,1-.292-.9c-.063-.056-.29.263-.365.34h2.879c-.235-.236-.033.088-.072-.084q-.082-.156-.009,0c.043.106.047.1.011-.009q-.052-.221-.009.1c0-.061-.007-.121-.01-.182s0-.122,0-.182q-.059.311-.014.088c0-.036.1-.4.031-.193-.079.229.107-.194.139-.244-.144.229-.089.01.022,0q-.242.161-.059.045c.125-.071.1-.068-.077.01a2.1,2.1,0,0,0,1.422-2.5,2.05,2.05,0,0,0-2.5-1.422Z" fill="#4c4c4c"/>
    </g>
    <g id="XMLID_18_">
      <path id="XMLID_19_" d="M659.495,83.658c.277.385.026-.39.062.114.021.3.046.6.088.9a3.327,3.327,0,0,0,.975,2.019,3.139,3.139,0,0,0,3.828.233,3.6,3.6,0,0,0,1.618-3.7,5.985,5.985,0,0,0-2.092-3.309,2.132,2.132,0,0,0-2.467-.318,6.482,6.482,0,0,0-2.227,1.684,2.09,2.09,0,0,0,0,2.879,3.586,3.586,0,0,0,5.032.141,2.036,2.036,0,0,0-2.879-2.879.626.626,0,0,1,.522-.194c.162.025.481.349.2.053v2.879a3.276,3.276,0,0,1,1.4-1.047l-2.467-.318a3.378,3.378,0,0,1,1,1.16q-.1-.217.011.134a.375.375,0,0,1-.02-.3.526.526,0,0,1,.161-.3c-.17.162-.172.164,0,.007a1.277,1.277,0,0,1,1.337.441.325.325,0,0,1,.075.254c-.011-.14-.021-.281-.028-.422a4.137,4.137,0,0,0-.617-2.169,2.1,2.1,0,0,0-2.786-.73,2.047,2.047,0,0,0-.732,2.782Z" fill="#4c4c4c"/>
    </g>
    <g id="XMLID_20_">
      <path id="XMLID_21_" d="M666.041,65.636a4.368,4.368,0,0,0,.592,5.008,3.734,3.734,0,0,0,4.941.288,3.239,3.239,0,0,0,.4-4.854,3.316,3.316,0,0,0-4.736-.107,2.036,2.036,0,0,0,2.879,2.879q.183-.189-.019-.012a.848.848,0,0,1-.367.2l-.3.041c.173.008.167,0-.02-.011s-.193-.021-.021.024l-.248-.1c.364.164-.276-.277-.005.006a.962.962,0,0,1-.284-.6c-.014-.144.12-.59,0-.275.027-.072.376-.583.148-.322l.188-.144q-.242.13-.012.029c.246-.176-.086.1-.17.031l.252-.042c-.187-.008-.193,0-.016.013s.171.019-.01-.026l.225.082q.261.227.1.075c-.1-.106-.079-.069.07.111-.145-.353.089.2-.029-.012s-.037-.293-.034-.008c0-.21.1-.469-.031-.1.04-.114.219-.542.011-.118a2.078,2.078,0,0,0-.73-2.785,2.056,2.056,0,0,0-2.782.728Z" fill="#4c4c4c"/>
    </g>
    <g id="XMLID_22_">
      <path id="XMLID_23_" d="M679.142,47.663c-.878,1.6-1.233,3.773.153,5.214a3.288,3.288,0,0,0,5.129-.718,3.062,3.062,0,0,0-1.856-4.566,3.342,3.342,0,0,0-4.086,2.311,2.036,2.036,0,0,0,3.926,1.082c.042-.161.029-.151-.037.028a.828.828,0,0,1-.253.376c.267-.274-.4.243-.063.053l-.277.119c.213-.054.145-.052-.205,0,.09-.007.431.021.07-.026a.806.806,0,0,1-.286-.088c.082.047-.314-.27-.383-.387a1.109,1.109,0,0,1-.111-.83c.128-.261.154-.325.078-.189s-.038.08.12-.146c-.24.292.338-.19-.017,0l.241-.109c.308-.021.383-.031.223-.029s-.085.006.227.024l.543.311c-.157-.161-.14-.136.052.077l.1.225c-.132-.333-.054.332,0-.044.072-.5-.148.417.015-.085.05-.155.091-.312.147-.466-.117.32-.025.082.07-.09a2.036,2.036,0,1,0-3.517-2.053Z" fill="#4c4c4c"/>
    </g>
    <g id="XMLID_24_">
      <path id="XMLID_25_" d="M699.088,33.757a4.463,4.463,0,0,0-3.473-.544,2.538,2.538,0,0,0-1.715,1.7,3.572,3.572,0,0,0-.006,1.839,3.529,3.529,0,0,0,5.251,2.158,3.6,3.6,0,0,0,.541-5.572,3.647,3.647,0,0,0-5.545.992,2.084,2.084,0,0,0,.73,2.786,2.061,2.061,0,0,0,2.785-.73c.224-.479-.219.163.01-.049l-.232.181q.279-.156-.18.051a1.877,1.877,0,0,1,.221-.067l-.312.035a1.784,1.784,0,0,1,.231-.007q-.523-.09-.2-.026c.35.111-.393-.252-.069-.032q-.381-.321-.149-.1l-.176-.224q.153.287-.064-.163c.047.216.04.151-.022-.193.027.367.144-.445.014-.069-.142.413.208-.437.018-.044q-.177.269.1-.125-.181.169.03,0c.148-.106.152-.114.013-.026q.466-.174.156-.081a.691.691,0,0,1,.435-.018c.184.035.191.034.02-.005.285.136.331.153.138.049q.325.276.156.123c-.357-.323.119.283-.041-.049q.152.408.081.188a1.189,1.189,0,0,1-.047-.187c.2.13-.134.9.08.329l-.936,1.217q.238-.153.007-.046a.713.713,0,0,1-.371.07c.37-.018-.239-.1-.015-.016.118.046.261.081.381.117-.319-.1-.091-.037.094.056a2.036,2.036,0,0,0,2.057-3.515Z" fill="#4c4c4c"/>
    </g>
    <g id="XMLID_26_">
      <path id="XMLID_27_" d="M675.816,38.122a4.4,4.4,0,0,0,.1,2.185A2.732,2.732,0,0,0,678,42.355a2.358,2.358,0,0,0,2.369-1.2,2.307,2.307,0,0,0-.818-3.112,2.054,2.054,0,0,0-2.785.73,2.077,2.077,0,0,0,.73,2.785l.05.031-.412-.318.036.039-.318-.412c.008.015.015.03.022.045l-.205-.486c0,.017.007.033.01.05-.024-.18-.049-.361-.073-.541,0,.018,0,.035,0,.053.024-.18.049-.361.073-.541a.393.393,0,0,1-.03.108l.205-.486a.454.454,0,0,1-.061.1l.318-.412a.424.424,0,0,1-.083.081l.412-.318-.047.029.486-.205a.244.244,0,0,1-.1.027l.541-.073-.05-.005.541.073-.049-.02.486.205-.047-.036q.366.365.73.73a2.571,2.571,0,0,1-.254-.44l.205.486a2.6,2.6,0,0,1-.157-.589c.024.18.049.361.073.541a2.616,2.616,0,0,1,0-.508c-.024.18-.049.361-.073.541l.015-.1a2.227,2.227,0,0,0-.205-1.569,2.036,2.036,0,0,0-2.786-.731,1.981,1.981,0,0,0-.933,1.219Z" fill="#4c4c4c"/>
    </g>
    <g id="XMLID_28_">
      <path id="XMLID_29_" d="M640.487,100.783a3.748,3.748,0,1,0,.625.856,3.607,3.607,0,0,0-6.023-.38c-1.811,2.637,1.55,6.138,4.273,4.555a2.037,2.037,0,0,0-2.056-3.516,1.109,1.109,0,0,1,.7-.111c.074.011.472.165.346.1-.209-.118.367.323.06.019a.966.966,0,0,1,.254.438c-.08-.273,0,.063,0,.159a1.04,1.04,0,0,1-.218.629c-.041.053-.358.309-.228.227.229-.144-.432.229-.464.112,0,0,.271-.011.27,0l-.271-.031q.257.081.016-.015c-.389-.008.267-.03-.093-.064q-.194-.165,0,.015l-.153-.2c-.066-.105-.128-.336-.039-.08l-.033-.244c-.008.19,0,.2.013.029.1-.4-.112.284.018-.078.094-.262-.244.245.109-.133-.018.02-.217.208-.214.216-.029-.078.34-.2.382-.22-.429.163.276,0,.02.01-.2.011.233.06.273.062.148.071.14.061-.026-.028l.171.135c-.059-.176-.081-.1.016.068-.055-.093-.145-.389-.107-.163.056.326.065-.291.03.076.019.171.027.162.023-.028-.007.082-.013.163-.02.245-.037.139-.164.28-.018.086-.048.064-.429.413-.267.286.1-.075.3-.086.081-.058-.132.053-.144.064-.037.031q.23-.056-.181.01a1.02,1.02,0,0,1,.292,0c-.03-.05-.436-.038-.117.011-.24-.112-.294-.129-.163-.053s.083.048-.129-.092a2.037,2.037,0,0,0,2.883-2.879Z" fill="#4c4c4c"/>
    </g>
    <g id="XMLID_30_">
      <path id="XMLID_31_" d="M675.013,75.852a6.375,6.375,0,0,0-2.832,5.071,2.044,2.044,0,0,0,1.495,1.963,6.239,6.239,0,0,0,4.481-.477,3.94,3.94,0,0,0,1.833-3.856,3.33,3.33,0,0,0-3.348-2.8,6.252,6.252,0,0,0-3.85,1.785,2.053,2.053,0,0,0,0,2.879,2.077,2.077,0,0,0,2.879,0c.086-.074.216-.177.048-.052.136-.1.279-.195.424-.283.116-.07.234-.136.356-.2.286-.144-.237.061.059-.018.318-.086.248.041.084-.043l.172,0-.214-.01a1.029,1.029,0,0,1-.545-.421c-.042-.083-.07-.563-.08-.334-.013.3-.005-.348,0-.047-.035.11-.032.109.008,0s.043-.114-.014-.011-.061.1.005,0c.088-.114.063-.1-.076.049a.368.368,0,0,1,.217-.14c-.142.037-.278.091-.424.114.219-.036-.048-.006-.123-.009a6.183,6.183,0,0,1-.809-.064l1.495,1.963a2.129,2.129,0,0,1,.232-.85c.042-.076.406-.562.216-.348.063-.071.589-.513.367-.357a2.089,2.089,0,0,0,.73-2.785,2.055,2.055,0,0,0-2.786-.729Z" fill="#4c4c4c"/>
    </g>
    <g id="XMLID_32_">
      <path id="XMLID_33_" d="M619.919,79.624a3.812,3.812,0,0,0-2.358,2.407,3.645,3.645,0,0,0,.358,3.027,2.114,2.114,0,0,0,2.3.936,4.131,4.131,0,0,0,3.016-2.842,2.049,2.049,0,0,0-1.963-2.577,2.726,2.726,0,0,0-2.716,1.825,2.369,2.369,0,0,0,1.61,2.941,2.227,2.227,0,0,0,2.746-2.141,2.2,2.2,0,0,0-2.747-2.157,2.052,2.052,0,0,0-1.422,2.5,2.082,2.082,0,0,0,2.505,1.422l.065-.014-1.569-.205.05.022-.73-.73q0-.869.007-1.739.366-.364.73-.73l-.051.039,1.028-.278.381.049.9.524.3,1.93q-.366.364-.73.73.308-.2-.193,0-.534.116-.159.079l-1.963-2.577c-.136.417.229-.334-.026.023.169-.2.2-.247.1-.135a1.5,1.5,0,0,1-.149.149l.19-.146a2.26,2.26,0,0,1-.243.141l.226-.1a1.81,1.81,0,0,1-.273.066l2.3.936c-.157-.246.058.115.042.176,0,.006-.106-.5-.042-.068.049.336.01.06.022-.02.038-.248-.085.552-.006.136.055-.292-.008.138-.076.157a1.313,1.313,0,0,0,.12-.2l-.172.23c.12-.112.108-.111-.033,0-.133.1-.155.114-.066.056q.2-.119-.223.078a2.089,2.089,0,0,0,1.422-2.5,2.056,2.056,0,0,0-2.5-1.423Z" fill="#4c4c4c"/>
    </g>
    <g id="XMLID_34_">
      <path id="XMLID_35_" d="M622.785,96.735a3.72,3.72,0,1,0,1.978,6.883c2.005-1.261,2.295-4.5.157-5.794-1.973-1.195-4.937.28-4.812,2.694a2.036,2.036,0,0,0,4.072,0q0-.369-.1.2a.741.741,0,0,1-.261.544q-.355.24-.159.118t-.184.069c.3-.116-.141.012-.286-.01a1.006,1.006,0,0,1-.583-.3.994.994,0,0,1-.261-.653c.054.506-.035-.458-.011.046.028-.07.056-.14.083-.21q-.152.238-.016.039a.518.518,0,0,1,.241-.221c.235-.077.279-.093.134-.049-.261.054.4-.053,0-.011q.383.063.156,0t.12.06c-.326-.226.165.288-.085-.063.053.075.223.493.178.294s-.019.272-.027.352c.058-.543-.069.4.048-.122-.137.165-.155.2-.054.091s.077-.08-.087.062c.282-.194-.075.032-.246.044a2.036,2.036,0,0,0,0-4.073Z" fill="#4c4c4c"/>
    </g>
    <g id="XMLID_36_">
      <path id="XMLID_37_" d="M667.983,94.61a4.8,4.8,0,0,0,.682,5.084,3.793,3.793,0,0,0,4.616.608,2.961,2.961,0,0,0,.447-4.688c-1.309-1.259-3.707-1.279-4.613.48a2.036,2.036,0,1,0,3.515,2.056q.177-.306-.2.157a.964.964,0,0,1-.56.4l-.339.059c-.344-.061-.437-.069-.277-.023.227.056-.423-.219-.128-.034-.236-.2-.3-.241-.19-.133s.06.049-.144-.19a1.209,1.209,0,0,1,.169-1.4q.359-.245.162-.127t.192-.08c-.336.133.32-.012.082-.012s.487.137.068.011c-.359-.108.257.145.043.021s.348.23.04.021q.207.277.086.075-.1-.193.031.072c-.052-.392-.049.169-.029-.084.012-.153,0-.309.012-.462-.046.435.057-.141.074-.2a5.418,5.418,0,0,1,.192-.527,2.042,2.042,0,0,0-1.422-2.5,2.1,2.1,0,0,0-2.506,1.42Z" fill="#4c4c4c"/>
    </g>
    <g id="XMLID_38_">
      <path id="XMLID_39_" d="M650.18,86.089a4.046,4.046,0,0,0-1.913,6.577c2.028,2.066,6.141.921,6.616-2.019a2.121,2.121,0,0,0-.936-2.3,5.521,5.521,0,0,0-5.713.074,2.036,2.036,0,1,0,2.056,3.515,1.315,1.315,0,0,1,1.6-.074l-.936-2.3a2.422,2.422,0,0,1-.069.319c-.081-.022.3-.487.152-.288-.171.229.25-.2.039-.007-.041.038-.353.178-.122.084.261-.105-.169.03-.228.041.158-.03.291-.089.055-.044.151-.029.313.078.071-.02.073.029.447.279.292.136s.094.153.125.2c.084.138.063-.1.011.073-.07.231.017-.084.013-.2.005.139-.012.336.014.075.024-.245.087-.072-.023.049.2-.214.021,0-.049.029.445-.182-.268.081,0-.022s-.473.13.022.016a2.035,2.035,0,1,0-1.082-3.924Z" fill="#4c4c4c"/>
    </g>
    <g id="XMLID_40_">
      <path id="XMLID_41_" d="M605.577,95.589a6.456,6.456,0,0,0,4.659,6.581,2.053,2.053,0,0,0,2.577-1.963,6.079,6.079,0,0,0-4.317-5.634,2.019,2.019,0,0,0-1.981.524,3.723,3.723,0,0,0-.9,3.8,2.077,2.077,0,0,0,2.5,1.422,4.742,4.742,0,0,0,2.866-2.225c1.312-2.274-2.206-4.327-3.516-2.055-.152.264-.137.269-.433.354l2.5,1.422c-.178-.494.038-.035-.149.165l-1.981.524a1.882,1.882,0,0,1,1.327,1.708l2.577-1.963a2.412,2.412,0,0,1-1.67-2.655,2.052,2.052,0,0,0-2.036-2.036,2.075,2.075,0,0,0-2.033,2.034Z" fill="#4c4c4c"/>
    </g>
    <g id="XMLID_42_">
      <path id="XMLID_43_" d="M651.606,106.654a3.893,3.893,0,0,0,3.851,5.019,2.122,2.122,0,0,0,1.963-1.5,4.694,4.694,0,0,0-4.227-5.844c-1.188-.1-1.914,1.022-2.036,2.036a4.863,4.863,0,0,0,3.652,5.064,2.061,2.061,0,0,0,2.577-1.963,4.853,4.853,0,0,0-4.586-4.834,2.046,2.046,0,0,0-2.036,2.036,2.087,2.087,0,0,0,2.036,2.036c-.2-.015-.2-.043,0,.011.183.05.184.089.018-.006a3.514,3.514,0,0,1,.31.189c-.233-.167-.038,0,.065.1.2.21-.127-.23.01.024.022.04.173.367.1.163s.024.15.036.187c.081.265-.012-.421-.02.09l2.577-1.963a3.183,3.183,0,0,1-.347-.1c.359.13.01-.027-.072-.08-.239-.156.183.193-.005-.023-.068-.078-.257-.376-.081-.077-.061-.1-.124-.206-.179-.314.089.176.064.159.014-.019-.1-.357-.051.131-.019-.079.022-.143.01-.3.027-.449l-2.036,2.036c-.437-.037-.082-.011.034.035.141.047.106.034-.1-.041l.144.085c-.111.021-.223-.205.045.05.119.113.189.344.054.046.045.1.112.2.167.294-.207-.357,0-.057-.006.066-.017.242-.034-.356,0,.037.034.413.09-.316-.031.119l1.963-1.5c-.472.051-.214-.012.1.128q-.288-.177.015.051a2.058,2.058,0,0,1-.226-.231q.231.3.052.006.145.361.046.034c.05.342-.085.6.088.148a2.045,2.045,0,0,0-1.422-2.5,2.091,2.091,0,0,0-2.505,1.421Z" fill="#4c4c4c"/>
    </g>
    <g id="XMLID_44_">
      <path id="XMLID_45_" d="M613.443,114.942a3.612,3.612,0,0,0-2.3-.588,2.1,2.1,0,0,0-1.963,1.5c-.685,2.938,2.717,5.753,5.424,4.056,2.633-1.651,1.622-5.811-1.229-6.553a3.174,3.174,0,0,0-3.846,2.182,3.28,3.28,0,0,0,2.144,3.806,3.576,3.576,0,0,0,4.06-1.7,4.627,4.627,0,0,0-.306-4.681c-1.359-2.236-4.882-.192-3.516,2.055.041.067.386.709.27.693s.311-.27.347-.278a.966.966,0,0,1,.91.462c.148.294.028.468-.1.766-.265.618-.438.6-1.046.624q-.3-.164-.1-.052t-.076-.061l-.1-.145c.1.179.119.2.064.065s-.04-.111.022.083c-.006-.067-.011-.134-.017-.2,0,.056,0,.113,0,.169a.561.561,0,0,1,.057-.3.956.956,0,0,1,.572-.5.479.479,0,0,1,.295.006c.153.036.127.029-.08-.021l.149.068c-.177-.111-.209-.126-.1-.044.083.068.082.062,0-.018-.1-.105-.085-.086.046.058a1.112,1.112,0,0,1,.078.548l-1.963,1.5c.426-.043-.122-.207.243.032a2.037,2.037,0,1,0,2.055-3.517Z" fill="#4c4c4c"/>
    </g>
    <g id="XMLID_46_">
      <path id="XMLID_47_" d="M634.068,114a4.248,4.248,0,0,0,.137,5.934,4.136,4.136,0,0,0,5.783-.384,4.031,4.031,0,0,0-1.01-5.99,3.845,3.845,0,0,0-3.16-.383,4.186,4.186,0,0,0-2.618,2.614,2.05,2.05,0,0,0,1.422,2.5,2.085,2.085,0,0,0,2.5-1.422c-.087.217-.2.266.01.1-.213.161-.3.068-.052.069-.192.013-.212.019-.062.018s.129,0-.093-.007q-.274-.133-.083-.026t-.058-.051c.14.151.164.174.074.066s-.072-.08.039.094q-.105-.279-.04-.07t0-.1c-.006.209,0,.236.011.083a.372.372,0,0,1,.093-.252q-.157.255-.027.076t-.064.046l.142-.113c-.2.109-.2.116.026.019l-.164.051c-.234.05-.223.052.034,0h-.171c.259.045.273.039.041-.015l.174.073c-.193-.118-.2-.119-.008,0l.1.134q-.168-.309-.026,0c-.017-.057-.033-.115-.05-.172.014.216.018.248.01.1a1.741,1.741,0,0,1,0-.27c-.033.214-.031.247,0,.1s.029-.116-.042.072q.183-.3,0-.019a2.08,2.08,0,0,0,0-2.879,2.054,2.054,0,0,0-2.877,0Z" fill="#4c4c4c"/>
    </g>
  </g>
</svg>
